<?xml version="1.0" encoding="utf-8"?>
<!-- Generator: Adobe Illustrator 20.1.0, SVG Export Plug-In . SVG Version: 6.00 Build 0)  -->
<!DOCTYPE svg PUBLIC "-//W3C//DTD SVG 1.1//EN" "http://www.w3.org/Graphics/SVG/1.1/DTD/svg11.dtd">
<svg version="1.1" id="Layer_1" xmlns="http://www.w3.org/2000/svg" xmlns:xlink="http://www.w3.org/1999/xlink" x="0px" y="0px"
	 viewBox="0 0 913.5 159" style="enable-background:new 0 0 913.5 159;" xml:space="preserve">
<style type="text/css">
	.st0{fill-rule:evenodd;clip-rule:evenodd;fill:#909090;}
</style>
<g>
	<path class="st0" d="M127.7,4.1c18.6-2,30.8,7.2,38.2,18c7.7,11.3,11.8,25.5,13.4,41.8c3.5,35.6-4.4,71.4-25.4,85.2
		c-13.7,9-33.4,6.9-44.9-2.1c-14.2-11.2-22.3-33.6-22.9-59c-0.6-27.6,3.3-51.2,14.1-66.9C106.1,12.7,114.1,5.6,127.7,4.1z
		 M106.3,67.7c-2.2,26.6,1.9,53.5,19.2,60.8c4.8,2,11.9,1.5,15.3,0c13.3-5.8,17.7-22.8,18.6-41.2c0.8-15.5,0-32.9-5.8-44.3
		c-4.1-8.1-11.8-15.6-24.1-13.7C113.4,31.7,107.7,50.7,106.3,67.7z"/>
	<path class="st0" d="M904.2,47.8c-6.3,0.5-12.6,1.1-19.2,1.2c-1.6-7.7-2.3-16-9.8-19.6c-11.1-5.2-29.5,1.8-24.1,18
		c2.3,6.9,11.2,10.2,18.9,13.1c7.6,2.9,16.2,6.3,21.7,10.4c17.7,13.3,21,53.1,5.2,72.4c-6.6,8-17,12-29.6,11.9
		c-27.8-0.3-36.6-23.7-38.8-50.4c6.4-0.5,13.3-2.2,18.9-2.4c1.7,12.1,4,21.2,11.6,25.7c5.3,3.1,14,2.9,18.9,0.3
		c7.9-4.1,12.6-16.6,8.2-26.3c-3-6.7-13.3-10.2-22-13.4c-8.4-3.1-17.3-7.4-22.3-13.1c-16.4-18.9-12-55.4,6.1-66.9
		c5.6-3.5,13.8-5.6,23.8-4.9C894.4,5.5,903.3,24.5,904.2,47.8z"/>
	<path class="st0" d="M49.8,6.3c6.3,0,12.6,0,18.9,0c0,25.8,0,53.8,0,80.6c0,29.9,0.4,57.1-20.2,66c-7.6,3.3-17.2,2.9-23.8-0.3
		C11.3,146,7,126.5,7,107.4c6.4-0.8,12.1-2.2,18.3-3.1c-0.1,12.4,2.2,29.6,15.9,25c9-2.9,8.2-17.7,8.2-31.5c0-28.9,0-64.9,0-90.7
		C49.5,6.8,49.4,6.3,49.8,6.3z"/>
	<path class="st0" d="M195.8,6.3c6.3,0,12.6,0,18.9,0c0,19.1,0,38.3,0,57.4c12.2,0.7,25.8,0.1,38.5,0.3c0.7-18.6,0.1-38.6,0.3-57.7
		c6.4,0,12.8,0,19.2,0c0,48.8,0,97.5,0,146.3c-6.4,0-12.8,0-19.2,0c0-21.4,0-42.8,0-64.1c-12.8,0-25.7,0-38.5,0
		c-0.7,20.8-0.1,42.9-0.3,64.1c-6.4,0-12.8,0-19.2,0c0-48.5,0-96.9,0-145.4C195.5,6.8,195.5,6.3,195.8,6.3z"/>
	<path class="st0" d="M293.9,6.3c6.2,0,12.4,0,18.6,0c13.2,32.5,26.2,65.2,39.7,97.4c0.5-31.7,0.5-65.5,0-97.1
		c5.5-0.7,12.3-0.1,18.3-0.3c-0.5,48-0.5,98.1,0,146c-6,0.7-13.3,0.1-19.9,0.3c-12.7-32-26-63.4-38.8-95.3
		c-0.7,31.2-0.1,63.6-0.3,95.3c-6,0-12,0-18,0c0-48.5,0-96.9,0-145.4C293.5,6.8,293.5,6.3,293.9,6.3z"/>
	<path class="st0" d="M391.9,6.3c6.2,0,12.4,0,18.6,0c13.1,32.6,26,65.4,39.7,97.4c0-32.5,0-65,0-97.4c6,0,12,0,18,0
		c0,48.8,0,97.5,0,146.3c-6.5,0-13,0-19.5,0c-13-31.7-25.7-63.7-39.1-95c-0.7,31.1-0.1,63.4-0.3,95c-5.9,0-11.8,0-17.7,0
		c0-48.5,0-96.9,0-145.4C391.6,6.8,391.6,6.3,391.9,6.3z"/>
	<path class="st0" d="M501.9,6.3c7.6,19.2,15.3,38.2,22.6,57.7c8.2-18.6,15.2-38.4,22.6-57.7c7.3,0,14.7,0,22,0
		c0.2,1.8-0.9,3.3-1.5,4.9c-9.6,22.9-19.3,45.9-29,69.6c-1.5,3.6-4,7.1-4.6,10.4c-0.9,4.7,0,10.4,0,15.6c0,15.2,0,30.2,0,45.8
		c-6.4,0-12.8,0-19.2,0c0-15.6,0-30.4,0-46.1c0-5,0.8-10.6,0-15.3c-0.5-3.2-2.8-7.2-4.3-10.7c-10-24.4-21.1-49.2-30.9-73.3
		c-0.2-0.2-0.3-0.5-0.3-0.9C486.8,6.3,494.4,6.3,501.9,6.3z"/>
	<path class="st0" d="M625.3,6.3c5,33.3,9.6,66.9,14.7,100.2c6.5-32.9,11.7-67.1,18-100.2c7.7,0,15.5,0,23.2,0
		c5.3,34.2,11.1,67.9,16.8,101.7c5.5-33.4,10.1-67.7,15-101.7c6.5,0,13,0,19.5,0c-7.7,48.9-15.6,97.7-23.5,146.3
		c-6.8,0-13.6,0-20.5,0C681.9,116.4,676,79.5,669,43.5c-6.6,36.2-12.9,72.6-19.2,109.1c-7,0-14.1,0-21.1,0
		c-7.6-48.6-15.9-98.2-22.9-146.3C612.3,6.3,618.8,6.3,625.3,6.3z"/>
	<path class="st0" d="M763.4,6.3c6.8,0,13.6,0,20.5,0c13,48.7,25.9,97.5,38.8,146.3c-7,0-14.1,0-21.1,0c-2.9-11.1-5.6-22.3-8.6-33.3
		c-12.8,0-25.7,0-38.5,0c-3.3,10.5-5.7,22-8.2,33.3c-6.9,0-13.8,0-20.8,0C738.2,103.9,750.6,54.9,763.4,6.3z M760.3,94.9
		c8.8,0,17.5,0,26.3,0c-3.9-17.5-8.5-36.9-13.4-54.4C769,58.6,764,77.3,760.3,94.9z"/>
</g>
</svg>